<?xml version="1.0" encoding="UTF-8"?>
<svg xmlns="http://www.w3.org/2000/svg" width="270" height="270" viewBox="0 0 270 270" shape-rendering="crispEdges">
  <rect width="100%" height="100%" fill="#FFFFFF"/>
  <rect x="48" y="48" width="6" height="6" fill="#000000"/>
  <rect x="54" y="48" width="6" height="6" fill="#000000"/>
  <rect x="60" y="48" width="6" height="6" fill="#000000"/>
  <rect x="66" y="48" width="6" height="6" fill="#000000"/>
  <rect x="72" y="48" width="6" height="6" fill="#000000"/>
  <rect x="78" y="48" width="6" height="6" fill="#000000"/>
  <rect x="84" y="48" width="6" height="6" fill="#000000"/>
  <rect x="96" y="48" width="6" height="6" fill="#000000"/>
  <rect x="108" y="48" width="6" height="6" fill="#000000"/>
  <rect x="120" y="48" width="6" height="6" fill="#000000"/>
  <rect x="156" y="48" width="6" height="6" fill="#000000"/>
  <rect x="180" y="48" width="6" height="6" fill="#000000"/>
  <rect x="186" y="48" width="6" height="6" fill="#000000"/>
  <rect x="192" y="48" width="6" height="6" fill="#000000"/>
  <rect x="198" y="48" width="6" height="6" fill="#000000"/>
  <rect x="204" y="48" width="6" height="6" fill="#000000"/>
  <rect x="210" y="48" width="6" height="6" fill="#000000"/>
  <rect x="216" y="48" width="6" height="6" fill="#000000"/>
  <rect x="48" y="54" width="6" height="6" fill="#000000"/>
  <rect x="84" y="54" width="6" height="6" fill="#000000"/>
  <rect x="102" y="54" width="6" height="6" fill="#000000"/>
  <rect x="108" y="54" width="6" height="6" fill="#000000"/>
  <rect x="144" y="54" width="6" height="6" fill="#000000"/>
  <rect x="162" y="54" width="6" height="6" fill="#000000"/>
  <rect x="168" y="54" width="6" height="6" fill="#000000"/>
  <rect x="180" y="54" width="6" height="6" fill="#000000"/>
  <rect x="216" y="54" width="6" height="6" fill="#000000"/>
  <rect x="48" y="60" width="6" height="6" fill="#000000"/>
  <rect x="60" y="60" width="6" height="6" fill="#000000"/>
  <rect x="66" y="60" width="6" height="6" fill="#000000"/>
  <rect x="72" y="60" width="6" height="6" fill="#000000"/>
  <rect x="84" y="60" width="6" height="6" fill="#000000"/>
  <rect x="108" y="60" width="6" height="6" fill="#000000"/>
  <rect x="120" y="60" width="6" height="6" fill="#000000"/>
  <rect x="126" y="60" width="6" height="6" fill="#000000"/>
  <rect x="138" y="60" width="6" height="6" fill="#000000"/>
  <rect x="144" y="60" width="6" height="6" fill="#000000"/>
  <rect x="150" y="60" width="6" height="6" fill="#000000"/>
  <rect x="156" y="60" width="6" height="6" fill="#000000"/>
  <rect x="168" y="60" width="6" height="6" fill="#000000"/>
  <rect x="180" y="60" width="6" height="6" fill="#000000"/>
  <rect x="192" y="60" width="6" height="6" fill="#000000"/>
  <rect x="198" y="60" width="6" height="6" fill="#000000"/>
  <rect x="204" y="60" width="6" height="6" fill="#000000"/>
  <rect x="216" y="60" width="6" height="6" fill="#000000"/>
  <rect x="48" y="66" width="6" height="6" fill="#000000"/>
  <rect x="60" y="66" width="6" height="6" fill="#000000"/>
  <rect x="66" y="66" width="6" height="6" fill="#000000"/>
  <rect x="72" y="66" width="6" height="6" fill="#000000"/>
  <rect x="84" y="66" width="6" height="6" fill="#000000"/>
  <rect x="96" y="66" width="6" height="6" fill="#000000"/>
  <rect x="102" y="66" width="6" height="6" fill="#000000"/>
  <rect x="114" y="66" width="6" height="6" fill="#000000"/>
  <rect x="132" y="66" width="6" height="6" fill="#000000"/>
  <rect x="138" y="66" width="6" height="6" fill="#000000"/>
  <rect x="144" y="66" width="6" height="6" fill="#000000"/>
  <rect x="156" y="66" width="6" height="6" fill="#000000"/>
  <rect x="180" y="66" width="6" height="6" fill="#000000"/>
  <rect x="192" y="66" width="6" height="6" fill="#000000"/>
  <rect x="198" y="66" width="6" height="6" fill="#000000"/>
  <rect x="204" y="66" width="6" height="6" fill="#000000"/>
  <rect x="216" y="66" width="6" height="6" fill="#000000"/>
  <rect x="48" y="72" width="6" height="6" fill="#000000"/>
  <rect x="60" y="72" width="6" height="6" fill="#000000"/>
  <rect x="66" y="72" width="6" height="6" fill="#000000"/>
  <rect x="72" y="72" width="6" height="6" fill="#000000"/>
  <rect x="84" y="72" width="6" height="6" fill="#000000"/>
  <rect x="96" y="72" width="6" height="6" fill="#000000"/>
  <rect x="108" y="72" width="6" height="6" fill="#000000"/>
  <rect x="126" y="72" width="6" height="6" fill="#000000"/>
  <rect x="132" y="72" width="6" height="6" fill="#000000"/>
  <rect x="144" y="72" width="6" height="6" fill="#000000"/>
  <rect x="156" y="72" width="6" height="6" fill="#000000"/>
  <rect x="180" y="72" width="6" height="6" fill="#000000"/>
  <rect x="192" y="72" width="6" height="6" fill="#000000"/>
  <rect x="198" y="72" width="6" height="6" fill="#000000"/>
  <rect x="204" y="72" width="6" height="6" fill="#000000"/>
  <rect x="216" y="72" width="6" height="6" fill="#000000"/>
  <rect x="48" y="78" width="6" height="6" fill="#000000"/>
  <rect x="84" y="78" width="6" height="6" fill="#000000"/>
  <rect x="96" y="78" width="6" height="6" fill="#000000"/>
  <rect x="114" y="78" width="6" height="6" fill="#000000"/>
  <rect x="126" y="78" width="6" height="6" fill="#000000"/>
  <rect x="132" y="78" width="6" height="6" fill="#000000"/>
  <rect x="138" y="78" width="6" height="6" fill="#000000"/>
  <rect x="150" y="78" width="6" height="6" fill="#000000"/>
  <rect x="162" y="78" width="6" height="6" fill="#000000"/>
  <rect x="168" y="78" width="6" height="6" fill="#000000"/>
  <rect x="180" y="78" width="6" height="6" fill="#000000"/>
  <rect x="216" y="78" width="6" height="6" fill="#000000"/>
  <rect x="48" y="84" width="6" height="6" fill="#000000"/>
  <rect x="54" y="84" width="6" height="6" fill="#000000"/>
  <rect x="60" y="84" width="6" height="6" fill="#000000"/>
  <rect x="66" y="84" width="6" height="6" fill="#000000"/>
  <rect x="72" y="84" width="6" height="6" fill="#000000"/>
  <rect x="78" y="84" width="6" height="6" fill="#000000"/>
  <rect x="84" y="84" width="6" height="6" fill="#000000"/>
  <rect x="96" y="84" width="6" height="6" fill="#000000"/>
  <rect x="108" y="84" width="6" height="6" fill="#000000"/>
  <rect x="120" y="84" width="6" height="6" fill="#000000"/>
  <rect x="132" y="84" width="6" height="6" fill="#000000"/>
  <rect x="144" y="84" width="6" height="6" fill="#000000"/>
  <rect x="156" y="84" width="6" height="6" fill="#000000"/>
  <rect x="168" y="84" width="6" height="6" fill="#000000"/>
  <rect x="180" y="84" width="6" height="6" fill="#000000"/>
  <rect x="186" y="84" width="6" height="6" fill="#000000"/>
  <rect x="192" y="84" width="6" height="6" fill="#000000"/>
  <rect x="198" y="84" width="6" height="6" fill="#000000"/>
  <rect x="204" y="84" width="6" height="6" fill="#000000"/>
  <rect x="210" y="84" width="6" height="6" fill="#000000"/>
  <rect x="216" y="84" width="6" height="6" fill="#000000"/>
  <rect x="96" y="90" width="6" height="6" fill="#000000"/>
  <rect x="114" y="90" width="6" height="6" fill="#000000"/>
  <rect x="120" y="90" width="6" height="6" fill="#000000"/>
  <rect x="132" y="90" width="6" height="6" fill="#000000"/>
  <rect x="150" y="90" width="6" height="6" fill="#000000"/>
  <rect x="162" y="90" width="6" height="6" fill="#000000"/>
  <rect x="168" y="90" width="6" height="6" fill="#000000"/>
  <rect x="48" y="96" width="6" height="6" fill="#000000"/>
  <rect x="72" y="96" width="6" height="6" fill="#000000"/>
  <rect x="84" y="96" width="6" height="6" fill="#000000"/>
  <rect x="90" y="96" width="6" height="6" fill="#000000"/>
  <rect x="96" y="96" width="6" height="6" fill="#000000"/>
  <rect x="102" y="96" width="6" height="6" fill="#000000"/>
  <rect x="114" y="96" width="6" height="6" fill="#000000"/>
  <rect x="126" y="96" width="6" height="6" fill="#000000"/>
  <rect x="132" y="96" width="6" height="6" fill="#000000"/>
  <rect x="138" y="96" width="6" height="6" fill="#000000"/>
  <rect x="144" y="96" width="6" height="6" fill="#000000"/>
  <rect x="150" y="96" width="6" height="6" fill="#000000"/>
  <rect x="168" y="96" width="6" height="6" fill="#000000"/>
  <rect x="174" y="96" width="6" height="6" fill="#000000"/>
  <rect x="180" y="96" width="6" height="6" fill="#000000"/>
  <rect x="186" y="96" width="6" height="6" fill="#000000"/>
  <rect x="192" y="96" width="6" height="6" fill="#000000"/>
  <rect x="198" y="96" width="6" height="6" fill="#000000"/>
  <rect x="216" y="96" width="6" height="6" fill="#000000"/>
  <rect x="60" y="102" width="6" height="6" fill="#000000"/>
  <rect x="66" y="102" width="6" height="6" fill="#000000"/>
  <rect x="72" y="102" width="6" height="6" fill="#000000"/>
  <rect x="78" y="102" width="6" height="6" fill="#000000"/>
  <rect x="96" y="102" width="6" height="6" fill="#000000"/>
  <rect x="108" y="102" width="6" height="6" fill="#000000"/>
  <rect x="120" y="102" width="6" height="6" fill="#000000"/>
  <rect x="156" y="102" width="6" height="6" fill="#000000"/>
  <rect x="174" y="102" width="6" height="6" fill="#000000"/>
  <rect x="180" y="102" width="6" height="6" fill="#000000"/>
  <rect x="186" y="102" width="6" height="6" fill="#000000"/>
  <rect x="192" y="102" width="6" height="6" fill="#000000"/>
  <rect x="198" y="102" width="6" height="6" fill="#000000"/>
  <rect x="204" y="102" width="6" height="6" fill="#000000"/>
  <rect x="210" y="102" width="6" height="6" fill="#000000"/>
  <rect x="216" y="102" width="6" height="6" fill="#000000"/>
  <rect x="48" y="108" width="6" height="6" fill="#000000"/>
  <rect x="54" y="108" width="6" height="6" fill="#000000"/>
  <rect x="72" y="108" width="6" height="6" fill="#000000"/>
  <rect x="84" y="108" width="6" height="6" fill="#000000"/>
  <rect x="96" y="108" width="6" height="6" fill="#000000"/>
  <rect x="120" y="108" width="6" height="6" fill="#000000"/>
  <rect x="126" y="108" width="6" height="6" fill="#000000"/>
  <rect x="132" y="108" width="6" height="6" fill="#000000"/>
  <rect x="138" y="108" width="6" height="6" fill="#000000"/>
  <rect x="150" y="108" width="6" height="6" fill="#000000"/>
  <rect x="156" y="108" width="6" height="6" fill="#000000"/>
  <rect x="168" y="108" width="6" height="6" fill="#000000"/>
  <rect x="174" y="108" width="6" height="6" fill="#000000"/>
  <rect x="180" y="108" width="6" height="6" fill="#000000"/>
  <rect x="216" y="108" width="6" height="6" fill="#000000"/>
  <rect x="48" y="114" width="6" height="6" fill="#000000"/>
  <rect x="60" y="114" width="6" height="6" fill="#000000"/>
  <rect x="66" y="114" width="6" height="6" fill="#000000"/>
  <rect x="78" y="114" width="6" height="6" fill="#000000"/>
  <rect x="90" y="114" width="6" height="6" fill="#000000"/>
  <rect x="96" y="114" width="6" height="6" fill="#000000"/>
  <rect x="102" y="114" width="6" height="6" fill="#000000"/>
  <rect x="108" y="114" width="6" height="6" fill="#000000"/>
  <rect x="126" y="114" width="6" height="6" fill="#000000"/>
  <rect x="138" y="114" width="6" height="6" fill="#000000"/>
  <rect x="144" y="114" width="6" height="6" fill="#000000"/>
  <rect x="150" y="114" width="6" height="6" fill="#000000"/>
  <rect x="156" y="114" width="6" height="6" fill="#000000"/>
  <rect x="162" y="114" width="6" height="6" fill="#000000"/>
  <rect x="168" y="114" width="6" height="6" fill="#000000"/>
  <rect x="198" y="114" width="6" height="6" fill="#000000"/>
  <rect x="210" y="114" width="6" height="6" fill="#000000"/>
  <rect x="216" y="114" width="6" height="6" fill="#000000"/>
  <rect x="60" y="120" width="6" height="6" fill="#000000"/>
  <rect x="78" y="120" width="6" height="6" fill="#000000"/>
  <rect x="84" y="120" width="6" height="6" fill="#000000"/>
  <rect x="90" y="120" width="6" height="6" fill="#000000"/>
  <rect x="96" y="120" width="6" height="6" fill="#000000"/>
  <rect x="102" y="120" width="6" height="6" fill="#000000"/>
  <rect x="108" y="120" width="6" height="6" fill="#000000"/>
  <rect x="120" y="120" width="6" height="6" fill="#000000"/>
  <rect x="126" y="120" width="6" height="6" fill="#000000"/>
  <rect x="150" y="120" width="6" height="6" fill="#000000"/>
  <rect x="156" y="120" width="6" height="6" fill="#000000"/>
  <rect x="168" y="120" width="6" height="6" fill="#000000"/>
  <rect x="174" y="120" width="6" height="6" fill="#000000"/>
  <rect x="210" y="120" width="6" height="6" fill="#000000"/>
  <rect x="48" y="126" width="6" height="6" fill="#000000"/>
  <rect x="66" y="126" width="6" height="6" fill="#000000"/>
  <rect x="72" y="126" width="6" height="6" fill="#000000"/>
  <rect x="78" y="126" width="6" height="6" fill="#000000"/>
  <rect x="90" y="126" width="6" height="6" fill="#000000"/>
  <rect x="126" y="126" width="6" height="6" fill="#000000"/>
  <rect x="132" y="126" width="6" height="6" fill="#000000"/>
  <rect x="144" y="126" width="6" height="6" fill="#000000"/>
  <rect x="150" y="126" width="6" height="6" fill="#000000"/>
  <rect x="156" y="126" width="6" height="6" fill="#000000"/>
  <rect x="180" y="126" width="6" height="6" fill="#000000"/>
  <rect x="186" y="126" width="6" height="6" fill="#000000"/>
  <rect x="192" y="126" width="6" height="6" fill="#000000"/>
  <rect x="198" y="126" width="6" height="6" fill="#000000"/>
  <rect x="204" y="126" width="6" height="6" fill="#000000"/>
  <rect x="210" y="126" width="6" height="6" fill="#000000"/>
  <rect x="216" y="126" width="6" height="6" fill="#000000"/>
  <rect x="54" y="132" width="6" height="6" fill="#000000"/>
  <rect x="78" y="132" width="6" height="6" fill="#000000"/>
  <rect x="84" y="132" width="6" height="6" fill="#000000"/>
  <rect x="96" y="132" width="6" height="6" fill="#000000"/>
  <rect x="114" y="132" width="6" height="6" fill="#000000"/>
  <rect x="144" y="132" width="6" height="6" fill="#000000"/>
  <rect x="156" y="132" width="6" height="6" fill="#000000"/>
  <rect x="168" y="132" width="6" height="6" fill="#000000"/>
  <rect x="174" y="132" width="6" height="6" fill="#000000"/>
  <rect x="186" y="132" width="6" height="6" fill="#000000"/>
  <rect x="198" y="132" width="6" height="6" fill="#000000"/>
  <rect x="204" y="132" width="6" height="6" fill="#000000"/>
  <rect x="216" y="132" width="6" height="6" fill="#000000"/>
  <rect x="60" y="138" width="6" height="6" fill="#000000"/>
  <rect x="72" y="138" width="6" height="6" fill="#000000"/>
  <rect x="78" y="138" width="6" height="6" fill="#000000"/>
  <rect x="90" y="138" width="6" height="6" fill="#000000"/>
  <rect x="96" y="138" width="6" height="6" fill="#000000"/>
  <rect x="102" y="138" width="6" height="6" fill="#000000"/>
  <rect x="114" y="138" width="6" height="6" fill="#000000"/>
  <rect x="120" y="138" width="6" height="6" fill="#000000"/>
  <rect x="132" y="138" width="6" height="6" fill="#000000"/>
  <rect x="150" y="138" width="6" height="6" fill="#000000"/>
  <rect x="180" y="138" width="6" height="6" fill="#000000"/>
  <rect x="192" y="138" width="6" height="6" fill="#000000"/>
  <rect x="210" y="138" width="6" height="6" fill="#000000"/>
  <rect x="216" y="138" width="6" height="6" fill="#000000"/>
  <rect x="60" y="144" width="6" height="6" fill="#000000"/>
  <rect x="84" y="144" width="6" height="6" fill="#000000"/>
  <rect x="90" y="144" width="6" height="6" fill="#000000"/>
  <rect x="102" y="144" width="6" height="6" fill="#000000"/>
  <rect x="126" y="144" width="6" height="6" fill="#000000"/>
  <rect x="132" y="144" width="6" height="6" fill="#000000"/>
  <rect x="138" y="144" width="6" height="6" fill="#000000"/>
  <rect x="144" y="144" width="6" height="6" fill="#000000"/>
  <rect x="150" y="144" width="6" height="6" fill="#000000"/>
  <rect x="168" y="144" width="6" height="6" fill="#000000"/>
  <rect x="174" y="144" width="6" height="6" fill="#000000"/>
  <rect x="210" y="144" width="6" height="6" fill="#000000"/>
  <rect x="48" y="150" width="6" height="6" fill="#000000"/>
  <rect x="54" y="150" width="6" height="6" fill="#000000"/>
  <rect x="96" y="150" width="6" height="6" fill="#000000"/>
  <rect x="102" y="150" width="6" height="6" fill="#000000"/>
  <rect x="114" y="150" width="6" height="6" fill="#000000"/>
  <rect x="120" y="150" width="6" height="6" fill="#000000"/>
  <rect x="150" y="150" width="6" height="6" fill="#000000"/>
  <rect x="156" y="150" width="6" height="6" fill="#000000"/>
  <rect x="180" y="150" width="6" height="6" fill="#000000"/>
  <rect x="186" y="150" width="6" height="6" fill="#000000"/>
  <rect x="192" y="150" width="6" height="6" fill="#000000"/>
  <rect x="198" y="150" width="6" height="6" fill="#000000"/>
  <rect x="210" y="150" width="6" height="6" fill="#000000"/>
  <rect x="216" y="150" width="6" height="6" fill="#000000"/>
  <rect x="60" y="156" width="6" height="6" fill="#000000"/>
  <rect x="78" y="156" width="6" height="6" fill="#000000"/>
  <rect x="84" y="156" width="6" height="6" fill="#000000"/>
  <rect x="90" y="156" width="6" height="6" fill="#000000"/>
  <rect x="126" y="156" width="6" height="6" fill="#000000"/>
  <rect x="132" y="156" width="6" height="6" fill="#000000"/>
  <rect x="138" y="156" width="6" height="6" fill="#000000"/>
  <rect x="156" y="156" width="6" height="6" fill="#000000"/>
  <rect x="168" y="156" width="6" height="6" fill="#000000"/>
  <rect x="174" y="156" width="6" height="6" fill="#000000"/>
  <rect x="180" y="156" width="6" height="6" fill="#000000"/>
  <rect x="192" y="156" width="6" height="6" fill="#000000"/>
  <rect x="204" y="156" width="6" height="6" fill="#000000"/>
  <rect x="216" y="156" width="6" height="6" fill="#000000"/>
  <rect x="60" y="162" width="6" height="6" fill="#000000"/>
  <rect x="66" y="162" width="6" height="6" fill="#000000"/>
  <rect x="72" y="162" width="6" height="6" fill="#000000"/>
  <rect x="78" y="162" width="6" height="6" fill="#000000"/>
  <rect x="96" y="162" width="6" height="6" fill="#000000"/>
  <rect x="108" y="162" width="6" height="6" fill="#000000"/>
  <rect x="120" y="162" width="6" height="6" fill="#000000"/>
  <rect x="126" y="162" width="6" height="6" fill="#000000"/>
  <rect x="138" y="162" width="6" height="6" fill="#000000"/>
  <rect x="144" y="162" width="6" height="6" fill="#000000"/>
  <rect x="150" y="162" width="6" height="6" fill="#000000"/>
  <rect x="156" y="162" width="6" height="6" fill="#000000"/>
  <rect x="162" y="162" width="6" height="6" fill="#000000"/>
  <rect x="180" y="162" width="6" height="6" fill="#000000"/>
  <rect x="210" y="162" width="6" height="6" fill="#000000"/>
  <rect x="216" y="162" width="6" height="6" fill="#000000"/>
  <rect x="48" y="168" width="6" height="6" fill="#000000"/>
  <rect x="54" y="168" width="6" height="6" fill="#000000"/>
  <rect x="60" y="168" width="6" height="6" fill="#000000"/>
  <rect x="66" y="168" width="6" height="6" fill="#000000"/>
  <rect x="78" y="168" width="6" height="6" fill="#000000"/>
  <rect x="84" y="168" width="6" height="6" fill="#000000"/>
  <rect x="90" y="168" width="6" height="6" fill="#000000"/>
  <rect x="96" y="168" width="6" height="6" fill="#000000"/>
  <rect x="102" y="168" width="6" height="6" fill="#000000"/>
  <rect x="108" y="168" width="6" height="6" fill="#000000"/>
  <rect x="114" y="168" width="6" height="6" fill="#000000"/>
  <rect x="120" y="168" width="6" height="6" fill="#000000"/>
  <rect x="126" y="168" width="6" height="6" fill="#000000"/>
  <rect x="150" y="168" width="6" height="6" fill="#000000"/>
  <rect x="162" y="168" width="6" height="6" fill="#000000"/>
  <rect x="168" y="168" width="6" height="6" fill="#000000"/>
  <rect x="174" y="168" width="6" height="6" fill="#000000"/>
  <rect x="180" y="168" width="6" height="6" fill="#000000"/>
  <rect x="186" y="168" width="6" height="6" fill="#000000"/>
  <rect x="192" y="168" width="6" height="6" fill="#000000"/>
  <rect x="198" y="168" width="6" height="6" fill="#000000"/>
  <rect x="216" y="168" width="6" height="6" fill="#000000"/>
  <rect x="96" y="174" width="6" height="6" fill="#000000"/>
  <rect x="126" y="174" width="6" height="6" fill="#000000"/>
  <rect x="132" y="174" width="6" height="6" fill="#000000"/>
  <rect x="144" y="174" width="6" height="6" fill="#000000"/>
  <rect x="168" y="174" width="6" height="6" fill="#000000"/>
  <rect x="192" y="174" width="6" height="6" fill="#000000"/>
  <rect x="216" y="174" width="6" height="6" fill="#000000"/>
  <rect x="48" y="180" width="6" height="6" fill="#000000"/>
  <rect x="54" y="180" width="6" height="6" fill="#000000"/>
  <rect x="60" y="180" width="6" height="6" fill="#000000"/>
  <rect x="66" y="180" width="6" height="6" fill="#000000"/>
  <rect x="72" y="180" width="6" height="6" fill="#000000"/>
  <rect x="78" y="180" width="6" height="6" fill="#000000"/>
  <rect x="84" y="180" width="6" height="6" fill="#000000"/>
  <rect x="96" y="180" width="6" height="6" fill="#000000"/>
  <rect x="108" y="180" width="6" height="6" fill="#000000"/>
  <rect x="114" y="180" width="6" height="6" fill="#000000"/>
  <rect x="144" y="180" width="6" height="6" fill="#000000"/>
  <rect x="162" y="180" width="6" height="6" fill="#000000"/>
  <rect x="168" y="180" width="6" height="6" fill="#000000"/>
  <rect x="180" y="180" width="6" height="6" fill="#000000"/>
  <rect x="192" y="180" width="6" height="6" fill="#000000"/>
  <rect x="198" y="180" width="6" height="6" fill="#000000"/>
  <rect x="204" y="180" width="6" height="6" fill="#000000"/>
  <rect x="216" y="180" width="6" height="6" fill="#000000"/>
  <rect x="48" y="186" width="6" height="6" fill="#000000"/>
  <rect x="84" y="186" width="6" height="6" fill="#000000"/>
  <rect x="102" y="186" width="6" height="6" fill="#000000"/>
  <rect x="114" y="186" width="6" height="6" fill="#000000"/>
  <rect x="132" y="186" width="6" height="6" fill="#000000"/>
  <rect x="150" y="186" width="6" height="6" fill="#000000"/>
  <rect x="162" y="186" width="6" height="6" fill="#000000"/>
  <rect x="168" y="186" width="6" height="6" fill="#000000"/>
  <rect x="192" y="186" width="6" height="6" fill="#000000"/>
  <rect x="210" y="186" width="6" height="6" fill="#000000"/>
  <rect x="48" y="192" width="6" height="6" fill="#000000"/>
  <rect x="60" y="192" width="6" height="6" fill="#000000"/>
  <rect x="66" y="192" width="6" height="6" fill="#000000"/>
  <rect x="72" y="192" width="6" height="6" fill="#000000"/>
  <rect x="84" y="192" width="6" height="6" fill="#000000"/>
  <rect x="96" y="192" width="6" height="6" fill="#000000"/>
  <rect x="102" y="192" width="6" height="6" fill="#000000"/>
  <rect x="120" y="192" width="6" height="6" fill="#000000"/>
  <rect x="126" y="192" width="6" height="6" fill="#000000"/>
  <rect x="132" y="192" width="6" height="6" fill="#000000"/>
  <rect x="138" y="192" width="6" height="6" fill="#000000"/>
  <rect x="150" y="192" width="6" height="6" fill="#000000"/>
  <rect x="162" y="192" width="6" height="6" fill="#000000"/>
  <rect x="168" y="192" width="6" height="6" fill="#000000"/>
  <rect x="174" y="192" width="6" height="6" fill="#000000"/>
  <rect x="180" y="192" width="6" height="6" fill="#000000"/>
  <rect x="186" y="192" width="6" height="6" fill="#000000"/>
  <rect x="192" y="192" width="6" height="6" fill="#000000"/>
  <rect x="198" y="192" width="6" height="6" fill="#000000"/>
  <rect x="210" y="192" width="6" height="6" fill="#000000"/>
  <rect x="216" y="192" width="6" height="6" fill="#000000"/>
  <rect x="48" y="198" width="6" height="6" fill="#000000"/>
  <rect x="60" y="198" width="6" height="6" fill="#000000"/>
  <rect x="66" y="198" width="6" height="6" fill="#000000"/>
  <rect x="72" y="198" width="6" height="6" fill="#000000"/>
  <rect x="84" y="198" width="6" height="6" fill="#000000"/>
  <rect x="108" y="198" width="6" height="6" fill="#000000"/>
  <rect x="120" y="198" width="6" height="6" fill="#000000"/>
  <rect x="156" y="198" width="6" height="6" fill="#000000"/>
  <rect x="168" y="198" width="6" height="6" fill="#000000"/>
  <rect x="174" y="198" width="6" height="6" fill="#000000"/>
  <rect x="210" y="198" width="6" height="6" fill="#000000"/>
  <rect x="48" y="204" width="6" height="6" fill="#000000"/>
  <rect x="60" y="204" width="6" height="6" fill="#000000"/>
  <rect x="66" y="204" width="6" height="6" fill="#000000"/>
  <rect x="72" y="204" width="6" height="6" fill="#000000"/>
  <rect x="84" y="204" width="6" height="6" fill="#000000"/>
  <rect x="102" y="204" width="6" height="6" fill="#000000"/>
  <rect x="108" y="204" width="6" height="6" fill="#000000"/>
  <rect x="120" y="204" width="6" height="6" fill="#000000"/>
  <rect x="126" y="204" width="6" height="6" fill="#000000"/>
  <rect x="138" y="204" width="6" height="6" fill="#000000"/>
  <rect x="156" y="204" width="6" height="6" fill="#000000"/>
  <rect x="168" y="204" width="6" height="6" fill="#000000"/>
  <rect x="198" y="204" width="6" height="6" fill="#000000"/>
  <rect x="204" y="204" width="6" height="6" fill="#000000"/>
  <rect x="210" y="204" width="6" height="6" fill="#000000"/>
  <rect x="216" y="204" width="6" height="6" fill="#000000"/>
  <rect x="48" y="210" width="6" height="6" fill="#000000"/>
  <rect x="84" y="210" width="6" height="6" fill="#000000"/>
  <rect x="102" y="210" width="6" height="6" fill="#000000"/>
  <rect x="114" y="210" width="6" height="6" fill="#000000"/>
  <rect x="120" y="210" width="6" height="6" fill="#000000"/>
  <rect x="126" y="210" width="6" height="6" fill="#000000"/>
  <rect x="132" y="210" width="6" height="6" fill="#000000"/>
  <rect x="150" y="210" width="6" height="6" fill="#000000"/>
  <rect x="156" y="210" width="6" height="6" fill="#000000"/>
  <rect x="168" y="210" width="6" height="6" fill="#000000"/>
  <rect x="180" y="210" width="6" height="6" fill="#000000"/>
  <rect x="198" y="210" width="6" height="6" fill="#000000"/>
  <rect x="210" y="210" width="6" height="6" fill="#000000"/>
  <rect x="216" y="210" width="6" height="6" fill="#000000"/>
  <rect x="48" y="216" width="6" height="6" fill="#000000"/>
  <rect x="54" y="216" width="6" height="6" fill="#000000"/>
  <rect x="60" y="216" width="6" height="6" fill="#000000"/>
  <rect x="66" y="216" width="6" height="6" fill="#000000"/>
  <rect x="72" y="216" width="6" height="6" fill="#000000"/>
  <rect x="78" y="216" width="6" height="6" fill="#000000"/>
  <rect x="84" y="216" width="6" height="6" fill="#000000"/>
  <rect x="96" y="216" width="6" height="6" fill="#000000"/>
  <rect x="102" y="216" width="6" height="6" fill="#000000"/>
  <rect x="108" y="216" width="6" height="6" fill="#000000"/>
  <rect x="120" y="216" width="6" height="6" fill="#000000"/>
  <rect x="138" y="216" width="6" height="6" fill="#000000"/>
  <rect x="150" y="216" width="6" height="6" fill="#000000"/>
  <rect x="156" y="216" width="6" height="6" fill="#000000"/>
  <rect x="168" y="216" width="6" height="6" fill="#000000"/>
  <rect x="180" y="216" width="6" height="6" fill="#000000"/>
  <rect x="198" y="216" width="6" height="6" fill="#000000"/>
  <rect x="210" y="216" width="6" height="6" fill="#000000"/>
</svg>
