<?xml version="1.0" encoding="UTF-8"?>
<svg xmlns="http://www.w3.org/2000/svg" width="318" height="318" viewBox="0 0 318 318" shape-rendering="crispEdges">
  <rect width="100%" height="100%" fill="#FFFFFF"/>
  <rect x="48" y="48" width="6" height="6" fill="#000000"/>
  <rect x="54" y="48" width="6" height="6" fill="#000000"/>
  <rect x="60" y="48" width="6" height="6" fill="#000000"/>
  <rect x="66" y="48" width="6" height="6" fill="#000000"/>
  <rect x="72" y="48" width="6" height="6" fill="#000000"/>
  <rect x="78" y="48" width="6" height="6" fill="#000000"/>
  <rect x="84" y="48" width="6" height="6" fill="#000000"/>
  <rect x="108" y="48" width="6" height="6" fill="#000000"/>
  <rect x="120" y="48" width="6" height="6" fill="#000000"/>
  <rect x="126" y="48" width="6" height="6" fill="#000000"/>
  <rect x="144" y="48" width="6" height="6" fill="#000000"/>
  <rect x="186" y="48" width="6" height="6" fill="#000000"/>
  <rect x="198" y="48" width="6" height="6" fill="#000000"/>
  <rect x="210" y="48" width="6" height="6" fill="#000000"/>
  <rect x="216" y="48" width="6" height="6" fill="#000000"/>
  <rect x="228" y="48" width="6" height="6" fill="#000000"/>
  <rect x="234" y="48" width="6" height="6" fill="#000000"/>
  <rect x="240" y="48" width="6" height="6" fill="#000000"/>
  <rect x="246" y="48" width="6" height="6" fill="#000000"/>
  <rect x="252" y="48" width="6" height="6" fill="#000000"/>
  <rect x="258" y="48" width="6" height="6" fill="#000000"/>
  <rect x="264" y="48" width="6" height="6" fill="#000000"/>
  <rect x="48" y="54" width="6" height="6" fill="#000000"/>
  <rect x="84" y="54" width="6" height="6" fill="#000000"/>
  <rect x="108" y="54" width="6" height="6" fill="#000000"/>
  <rect x="126" y="54" width="6" height="6" fill="#000000"/>
  <rect x="132" y="54" width="6" height="6" fill="#000000"/>
  <rect x="138" y="54" width="6" height="6" fill="#000000"/>
  <rect x="168" y="54" width="6" height="6" fill="#000000"/>
  <rect x="192" y="54" width="6" height="6" fill="#000000"/>
  <rect x="198" y="54" width="6" height="6" fill="#000000"/>
  <rect x="204" y="54" width="6" height="6" fill="#000000"/>
  <rect x="210" y="54" width="6" height="6" fill="#000000"/>
  <rect x="216" y="54" width="6" height="6" fill="#000000"/>
  <rect x="228" y="54" width="6" height="6" fill="#000000"/>
  <rect x="264" y="54" width="6" height="6" fill="#000000"/>
  <rect x="48" y="60" width="6" height="6" fill="#000000"/>
  <rect x="60" y="60" width="6" height="6" fill="#000000"/>
  <rect x="66" y="60" width="6" height="6" fill="#000000"/>
  <rect x="72" y="60" width="6" height="6" fill="#000000"/>
  <rect x="84" y="60" width="6" height="6" fill="#000000"/>
  <rect x="96" y="60" width="6" height="6" fill="#000000"/>
  <rect x="102" y="60" width="6" height="6" fill="#000000"/>
  <rect x="108" y="60" width="6" height="6" fill="#000000"/>
  <rect x="120" y="60" width="6" height="6" fill="#000000"/>
  <rect x="126" y="60" width="6" height="6" fill="#000000"/>
  <rect x="138" y="60" width="6" height="6" fill="#000000"/>
  <rect x="174" y="60" width="6" height="6" fill="#000000"/>
  <rect x="192" y="60" width="6" height="6" fill="#000000"/>
  <rect x="210" y="60" width="6" height="6" fill="#000000"/>
  <rect x="228" y="60" width="6" height="6" fill="#000000"/>
  <rect x="240" y="60" width="6" height="6" fill="#000000"/>
  <rect x="246" y="60" width="6" height="6" fill="#000000"/>
  <rect x="252" y="60" width="6" height="6" fill="#000000"/>
  <rect x="264" y="60" width="6" height="6" fill="#000000"/>
  <rect x="48" y="66" width="6" height="6" fill="#000000"/>
  <rect x="60" y="66" width="6" height="6" fill="#000000"/>
  <rect x="66" y="66" width="6" height="6" fill="#000000"/>
  <rect x="72" y="66" width="6" height="6" fill="#000000"/>
  <rect x="84" y="66" width="6" height="6" fill="#000000"/>
  <rect x="96" y="66" width="6" height="6" fill="#000000"/>
  <rect x="102" y="66" width="6" height="6" fill="#000000"/>
  <rect x="108" y="66" width="6" height="6" fill="#000000"/>
  <rect x="120" y="66" width="6" height="6" fill="#000000"/>
  <rect x="126" y="66" width="6" height="6" fill="#000000"/>
  <rect x="132" y="66" width="6" height="6" fill="#000000"/>
  <rect x="138" y="66" width="6" height="6" fill="#000000"/>
  <rect x="150" y="66" width="6" height="6" fill="#000000"/>
  <rect x="156" y="66" width="6" height="6" fill="#000000"/>
  <rect x="168" y="66" width="6" height="6" fill="#000000"/>
  <rect x="192" y="66" width="6" height="6" fill="#000000"/>
  <rect x="198" y="66" width="6" height="6" fill="#000000"/>
  <rect x="204" y="66" width="6" height="6" fill="#000000"/>
  <rect x="228" y="66" width="6" height="6" fill="#000000"/>
  <rect x="240" y="66" width="6" height="6" fill="#000000"/>
  <rect x="246" y="66" width="6" height="6" fill="#000000"/>
  <rect x="252" y="66" width="6" height="6" fill="#000000"/>
  <rect x="264" y="66" width="6" height="6" fill="#000000"/>
  <rect x="48" y="72" width="6" height="6" fill="#000000"/>
  <rect x="60" y="72" width="6" height="6" fill="#000000"/>
  <rect x="66" y="72" width="6" height="6" fill="#000000"/>
  <rect x="72" y="72" width="6" height="6" fill="#000000"/>
  <rect x="84" y="72" width="6" height="6" fill="#000000"/>
  <rect x="96" y="72" width="6" height="6" fill="#000000"/>
  <rect x="102" y="72" width="6" height="6" fill="#000000"/>
  <rect x="114" y="72" width="6" height="6" fill="#000000"/>
  <rect x="132" y="72" width="6" height="6" fill="#000000"/>
  <rect x="144" y="72" width="6" height="6" fill="#000000"/>
  <rect x="150" y="72" width="6" height="6" fill="#000000"/>
  <rect x="162" y="72" width="6" height="6" fill="#000000"/>
  <rect x="186" y="72" width="6" height="6" fill="#000000"/>
  <rect x="204" y="72" width="6" height="6" fill="#000000"/>
  <rect x="228" y="72" width="6" height="6" fill="#000000"/>
  <rect x="240" y="72" width="6" height="6" fill="#000000"/>
  <rect x="246" y="72" width="6" height="6" fill="#000000"/>
  <rect x="252" y="72" width="6" height="6" fill="#000000"/>
  <rect x="264" y="72" width="6" height="6" fill="#000000"/>
  <rect x="48" y="78" width="6" height="6" fill="#000000"/>
  <rect x="84" y="78" width="6" height="6" fill="#000000"/>
  <rect x="96" y="78" width="6" height="6" fill="#000000"/>
  <rect x="102" y="78" width="6" height="6" fill="#000000"/>
  <rect x="108" y="78" width="6" height="6" fill="#000000"/>
  <rect x="114" y="78" width="6" height="6" fill="#000000"/>
  <rect x="120" y="78" width="6" height="6" fill="#000000"/>
  <rect x="132" y="78" width="6" height="6" fill="#000000"/>
  <rect x="150" y="78" width="6" height="6" fill="#000000"/>
  <rect x="168" y="78" width="6" height="6" fill="#000000"/>
  <rect x="174" y="78" width="6" height="6" fill="#000000"/>
  <rect x="180" y="78" width="6" height="6" fill="#000000"/>
  <rect x="198" y="78" width="6" height="6" fill="#000000"/>
  <rect x="210" y="78" width="6" height="6" fill="#000000"/>
  <rect x="228" y="78" width="6" height="6" fill="#000000"/>
  <rect x="264" y="78" width="6" height="6" fill="#000000"/>
  <rect x="48" y="84" width="6" height="6" fill="#000000"/>
  <rect x="54" y="84" width="6" height="6" fill="#000000"/>
  <rect x="60" y="84" width="6" height="6" fill="#000000"/>
  <rect x="66" y="84" width="6" height="6" fill="#000000"/>
  <rect x="72" y="84" width="6" height="6" fill="#000000"/>
  <rect x="78" y="84" width="6" height="6" fill="#000000"/>
  <rect x="84" y="84" width="6" height="6" fill="#000000"/>
  <rect x="96" y="84" width="6" height="6" fill="#000000"/>
  <rect x="108" y="84" width="6" height="6" fill="#000000"/>
  <rect x="120" y="84" width="6" height="6" fill="#000000"/>
  <rect x="132" y="84" width="6" height="6" fill="#000000"/>
  <rect x="144" y="84" width="6" height="6" fill="#000000"/>
  <rect x="156" y="84" width="6" height="6" fill="#000000"/>
  <rect x="168" y="84" width="6" height="6" fill="#000000"/>
  <rect x="180" y="84" width="6" height="6" fill="#000000"/>
  <rect x="192" y="84" width="6" height="6" fill="#000000"/>
  <rect x="204" y="84" width="6" height="6" fill="#000000"/>
  <rect x="216" y="84" width="6" height="6" fill="#000000"/>
  <rect x="228" y="84" width="6" height="6" fill="#000000"/>
  <rect x="234" y="84" width="6" height="6" fill="#000000"/>
  <rect x="240" y="84" width="6" height="6" fill="#000000"/>
  <rect x="246" y="84" width="6" height="6" fill="#000000"/>
  <rect x="252" y="84" width="6" height="6" fill="#000000"/>
  <rect x="258" y="84" width="6" height="6" fill="#000000"/>
  <rect x="264" y="84" width="6" height="6" fill="#000000"/>
  <rect x="96" y="90" width="6" height="6" fill="#000000"/>
  <rect x="126" y="90" width="6" height="6" fill="#000000"/>
  <rect x="138" y="90" width="6" height="6" fill="#000000"/>
  <rect x="144" y="90" width="6" height="6" fill="#000000"/>
  <rect x="150" y="90" width="6" height="6" fill="#000000"/>
  <rect x="156" y="90" width="6" height="6" fill="#000000"/>
  <rect x="174" y="90" width="6" height="6" fill="#000000"/>
  <rect x="186" y="90" width="6" height="6" fill="#000000"/>
  <rect x="204" y="90" width="6" height="6" fill="#000000"/>
  <rect x="48" y="96" width="6" height="6" fill="#000000"/>
  <rect x="60" y="96" width="6" height="6" fill="#000000"/>
  <rect x="66" y="96" width="6" height="6" fill="#000000"/>
  <rect x="72" y="96" width="6" height="6" fill="#000000"/>
  <rect x="78" y="96" width="6" height="6" fill="#000000"/>
  <rect x="84" y="96" width="6" height="6" fill="#000000"/>
  <rect x="102" y="96" width="6" height="6" fill="#000000"/>
  <rect x="120" y="96" width="6" height="6" fill="#000000"/>
  <rect x="126" y="96" width="6" height="6" fill="#000000"/>
  <rect x="132" y="96" width="6" height="6" fill="#000000"/>
  <rect x="138" y="96" width="6" height="6" fill="#000000"/>
  <rect x="144" y="96" width="6" height="6" fill="#000000"/>
  <rect x="180" y="96" width="6" height="6" fill="#000000"/>
  <rect x="186" y="96" width="6" height="6" fill="#000000"/>
  <rect x="198" y="96" width="6" height="6" fill="#000000"/>
  <rect x="204" y="96" width="6" height="6" fill="#000000"/>
  <rect x="210" y="96" width="6" height="6" fill="#000000"/>
  <rect x="228" y="96" width="6" height="6" fill="#000000"/>
  <rect x="234" y="96" width="6" height="6" fill="#000000"/>
  <rect x="240" y="96" width="6" height="6" fill="#000000"/>
  <rect x="246" y="96" width="6" height="6" fill="#000000"/>
  <rect x="252" y="96" width="6" height="6" fill="#000000"/>
  <rect x="72" y="102" width="6" height="6" fill="#000000"/>
  <rect x="78" y="102" width="6" height="6" fill="#000000"/>
  <rect x="90" y="102" width="6" height="6" fill="#000000"/>
  <rect x="96" y="102" width="6" height="6" fill="#000000"/>
  <rect x="132" y="102" width="6" height="6" fill="#000000"/>
  <rect x="138" y="102" width="6" height="6" fill="#000000"/>
  <rect x="156" y="102" width="6" height="6" fill="#000000"/>
  <rect x="168" y="102" width="6" height="6" fill="#000000"/>
  <rect x="180" y="102" width="6" height="6" fill="#000000"/>
  <rect x="186" y="102" width="6" height="6" fill="#000000"/>
  <rect x="192" y="102" width="6" height="6" fill="#000000"/>
  <rect x="198" y="102" width="6" height="6" fill="#000000"/>
  <rect x="216" y="102" width="6" height="6" fill="#000000"/>
  <rect x="234" y="102" width="6" height="6" fill="#000000"/>
  <rect x="258" y="102" width="6" height="6" fill="#000000"/>
  <rect x="48" y="108" width="6" height="6" fill="#000000"/>
  <rect x="60" y="108" width="6" height="6" fill="#000000"/>
  <rect x="78" y="108" width="6" height="6" fill="#000000"/>
  <rect x="84" y="108" width="6" height="6" fill="#000000"/>
  <rect x="90" y="108" width="6" height="6" fill="#000000"/>
  <rect x="96" y="108" width="6" height="6" fill="#000000"/>
  <rect x="120" y="108" width="6" height="6" fill="#000000"/>
  <rect x="126" y="108" width="6" height="6" fill="#000000"/>
  <rect x="138" y="108" width="6" height="6" fill="#000000"/>
  <rect x="144" y="108" width="6" height="6" fill="#000000"/>
  <rect x="150" y="108" width="6" height="6" fill="#000000"/>
  <rect x="156" y="108" width="6" height="6" fill="#000000"/>
  <rect x="162" y="108" width="6" height="6" fill="#000000"/>
  <rect x="180" y="108" width="6" height="6" fill="#000000"/>
  <rect x="198" y="108" width="6" height="6" fill="#000000"/>
  <rect x="210" y="108" width="6" height="6" fill="#000000"/>
  <rect x="222" y="108" width="6" height="6" fill="#000000"/>
  <rect x="228" y="108" width="6" height="6" fill="#000000"/>
  <rect x="234" y="108" width="6" height="6" fill="#000000"/>
  <rect x="240" y="108" width="6" height="6" fill="#000000"/>
  <rect x="252" y="108" width="6" height="6" fill="#000000"/>
  <rect x="258" y="108" width="6" height="6" fill="#000000"/>
  <rect x="264" y="108" width="6" height="6" fill="#000000"/>
  <rect x="54" y="114" width="6" height="6" fill="#000000"/>
  <rect x="66" y="114" width="6" height="6" fill="#000000"/>
  <rect x="72" y="114" width="6" height="6" fill="#000000"/>
  <rect x="102" y="114" width="6" height="6" fill="#000000"/>
  <rect x="108" y="114" width="6" height="6" fill="#000000"/>
  <rect x="120" y="114" width="6" height="6" fill="#000000"/>
  <rect x="126" y="114" width="6" height="6" fill="#000000"/>
  <rect x="138" y="114" width="6" height="6" fill="#000000"/>
  <rect x="156" y="114" width="6" height="6" fill="#000000"/>
  <rect x="162" y="114" width="6" height="6" fill="#000000"/>
  <rect x="168" y="114" width="6" height="6" fill="#000000"/>
  <rect x="174" y="114" width="6" height="6" fill="#000000"/>
  <rect x="180" y="114" width="6" height="6" fill="#000000"/>
  <rect x="192" y="114" width="6" height="6" fill="#000000"/>
  <rect x="210" y="114" width="6" height="6" fill="#000000"/>
  <rect x="216" y="114" width="6" height="6" fill="#000000"/>
  <rect x="222" y="114" width="6" height="6" fill="#000000"/>
  <rect x="228" y="114" width="6" height="6" fill="#000000"/>
  <rect x="234" y="114" width="6" height="6" fill="#000000"/>
  <rect x="264" y="114" width="6" height="6" fill="#000000"/>
  <rect x="54" y="120" width="6" height="6" fill="#000000"/>
  <rect x="60" y="120" width="6" height="6" fill="#000000"/>
  <rect x="84" y="120" width="6" height="6" fill="#000000"/>
  <rect x="90" y="120" width="6" height="6" fill="#000000"/>
  <rect x="96" y="120" width="6" height="6" fill="#000000"/>
  <rect x="102" y="120" width="6" height="6" fill="#000000"/>
  <rect x="108" y="120" width="6" height="6" fill="#000000"/>
  <rect x="114" y="120" width="6" height="6" fill="#000000"/>
  <rect x="120" y="120" width="6" height="6" fill="#000000"/>
  <rect x="126" y="120" width="6" height="6" fill="#000000"/>
  <rect x="132" y="120" width="6" height="6" fill="#000000"/>
  <rect x="138" y="120" width="6" height="6" fill="#000000"/>
  <rect x="144" y="120" width="6" height="6" fill="#000000"/>
  <rect x="150" y="120" width="6" height="6" fill="#000000"/>
  <rect x="156" y="120" width="6" height="6" fill="#000000"/>
  <rect x="162" y="120" width="6" height="6" fill="#000000"/>
  <rect x="168" y="120" width="6" height="6" fill="#000000"/>
  <rect x="192" y="120" width="6" height="6" fill="#000000"/>
  <rect x="198" y="120" width="6" height="6" fill="#000000"/>
  <rect x="204" y="120" width="6" height="6" fill="#000000"/>
  <rect x="210" y="120" width="6" height="6" fill="#000000"/>
  <rect x="222" y="120" width="6" height="6" fill="#000000"/>
  <rect x="228" y="120" width="6" height="6" fill="#000000"/>
  <rect x="234" y="120" width="6" height="6" fill="#000000"/>
  <rect x="240" y="120" width="6" height="6" fill="#000000"/>
  <rect x="246" y="120" width="6" height="6" fill="#000000"/>
  <rect x="252" y="120" width="6" height="6" fill="#000000"/>
  <rect x="258" y="120" width="6" height="6" fill="#000000"/>
  <rect x="264" y="120" width="6" height="6" fill="#000000"/>
  <rect x="54" y="126" width="6" height="6" fill="#000000"/>
  <rect x="60" y="126" width="6" height="6" fill="#000000"/>
  <rect x="66" y="126" width="6" height="6" fill="#000000"/>
  <rect x="72" y="126" width="6" height="6" fill="#000000"/>
  <rect x="90" y="126" width="6" height="6" fill="#000000"/>
  <rect x="96" y="126" width="6" height="6" fill="#000000"/>
  <rect x="132" y="126" width="6" height="6" fill="#000000"/>
  <rect x="162" y="126" width="6" height="6" fill="#000000"/>
  <rect x="174" y="126" width="6" height="6" fill="#000000"/>
  <rect x="180" y="126" width="6" height="6" fill="#000000"/>
  <rect x="186" y="126" width="6" height="6" fill="#000000"/>
  <rect x="192" y="126" width="6" height="6" fill="#000000"/>
  <rect x="216" y="126" width="6" height="6" fill="#000000"/>
  <rect x="222" y="126" width="6" height="6" fill="#000000"/>
  <rect x="234" y="126" width="6" height="6" fill="#000000"/>
  <rect x="258" y="126" width="6" height="6" fill="#000000"/>
  <rect x="264" y="126" width="6" height="6" fill="#000000"/>
  <rect x="54" y="132" width="6" height="6" fill="#000000"/>
  <rect x="78" y="132" width="6" height="6" fill="#000000"/>
  <rect x="84" y="132" width="6" height="6" fill="#000000"/>
  <rect x="102" y="132" width="6" height="6" fill="#000000"/>
  <rect x="108" y="132" width="6" height="6" fill="#000000"/>
  <rect x="120" y="132" width="6" height="6" fill="#000000"/>
  <rect x="132" y="132" width="6" height="6" fill="#000000"/>
  <rect x="138" y="132" width="6" height="6" fill="#000000"/>
  <rect x="156" y="132" width="6" height="6" fill="#000000"/>
  <rect x="180" y="132" width="6" height="6" fill="#000000"/>
  <rect x="198" y="132" width="6" height="6" fill="#000000"/>
  <rect x="204" y="132" width="6" height="6" fill="#000000"/>
  <rect x="210" y="132" width="6" height="6" fill="#000000"/>
  <rect x="216" y="132" width="6" height="6" fill="#000000"/>
  <rect x="234" y="132" width="6" height="6" fill="#000000"/>
  <rect x="240" y="132" width="6" height="6" fill="#000000"/>
  <rect x="246" y="132" width="6" height="6" fill="#000000"/>
  <rect x="258" y="132" width="6" height="6" fill="#000000"/>
  <rect x="264" y="132" width="6" height="6" fill="#000000"/>
  <rect x="54" y="138" width="6" height="6" fill="#000000"/>
  <rect x="60" y="138" width="6" height="6" fill="#000000"/>
  <rect x="96" y="138" width="6" height="6" fill="#000000"/>
  <rect x="114" y="138" width="6" height="6" fill="#000000"/>
  <rect x="120" y="138" width="6" height="6" fill="#000000"/>
  <rect x="126" y="138" width="6" height="6" fill="#000000"/>
  <rect x="138" y="138" width="6" height="6" fill="#000000"/>
  <rect x="144" y="138" width="6" height="6" fill="#000000"/>
  <rect x="168" y="138" width="6" height="6" fill="#000000"/>
  <rect x="174" y="138" width="6" height="6" fill="#000000"/>
  <rect x="180" y="138" width="6" height="6" fill="#000000"/>
  <rect x="186" y="138" width="6" height="6" fill="#000000"/>
  <rect x="192" y="138" width="6" height="6" fill="#000000"/>
  <rect x="210" y="138" width="6" height="6" fill="#000000"/>
  <rect x="216" y="138" width="6" height="6" fill="#000000"/>
  <rect x="222" y="138" width="6" height="6" fill="#000000"/>
  <rect x="234" y="138" width="6" height="6" fill="#000000"/>
  <rect x="240" y="138" width="6" height="6" fill="#000000"/>
  <rect x="258" y="138" width="6" height="6" fill="#000000"/>
  <rect x="48" y="144" width="6" height="6" fill="#000000"/>
  <rect x="54" y="144" width="6" height="6" fill="#000000"/>
  <rect x="66" y="144" width="6" height="6" fill="#000000"/>
  <rect x="72" y="144" width="6" height="6" fill="#000000"/>
  <rect x="84" y="144" width="6" height="6" fill="#000000"/>
  <rect x="96" y="144" width="6" height="6" fill="#000000"/>
  <rect x="108" y="144" width="6" height="6" fill="#000000"/>
  <rect x="126" y="144" width="6" height="6" fill="#000000"/>
  <rect x="132" y="144" width="6" height="6" fill="#000000"/>
  <rect x="138" y="144" width="6" height="6" fill="#000000"/>
  <rect x="156" y="144" width="6" height="6" fill="#000000"/>
  <rect x="174" y="144" width="6" height="6" fill="#000000"/>
  <rect x="180" y="144" width="6" height="6" fill="#000000"/>
  <rect x="192" y="144" width="6" height="6" fill="#000000"/>
  <rect x="204" y="144" width="6" height="6" fill="#000000"/>
  <rect x="210" y="144" width="6" height="6" fill="#000000"/>
  <rect x="222" y="144" width="6" height="6" fill="#000000"/>
  <rect x="228" y="144" width="6" height="6" fill="#000000"/>
  <rect x="234" y="144" width="6" height="6" fill="#000000"/>
  <rect x="240" y="144" width="6" height="6" fill="#000000"/>
  <rect x="252" y="144" width="6" height="6" fill="#000000"/>
  <rect x="258" y="144" width="6" height="6" fill="#000000"/>
  <rect x="48" y="150" width="6" height="6" fill="#000000"/>
  <rect x="54" y="150" width="6" height="6" fill="#000000"/>
  <rect x="60" y="150" width="6" height="6" fill="#000000"/>
  <rect x="78" y="150" width="6" height="6" fill="#000000"/>
  <rect x="96" y="150" width="6" height="6" fill="#000000"/>
  <rect x="132" y="150" width="6" height="6" fill="#000000"/>
  <rect x="138" y="150" width="6" height="6" fill="#000000"/>
  <rect x="144" y="150" width="6" height="6" fill="#000000"/>
  <rect x="180" y="150" width="6" height="6" fill="#000000"/>
  <rect x="186" y="150" width="6" height="6" fill="#000000"/>
  <rect x="198" y="150" width="6" height="6" fill="#000000"/>
  <rect x="216" y="150" width="6" height="6" fill="#000000"/>
  <rect x="234" y="150" width="6" height="6" fill="#000000"/>
  <rect x="246" y="150" width="6" height="6" fill="#000000"/>
  <rect x="252" y="150" width="6" height="6" fill="#000000"/>
  <rect x="258" y="150" width="6" height="6" fill="#000000"/>
  <rect x="48" y="156" width="6" height="6" fill="#000000"/>
  <rect x="72" y="156" width="6" height="6" fill="#000000"/>
  <rect x="84" y="156" width="6" height="6" fill="#000000"/>
  <rect x="96" y="156" width="6" height="6" fill="#000000"/>
  <rect x="102" y="156" width="6" height="6" fill="#000000"/>
  <rect x="108" y="156" width="6" height="6" fill="#000000"/>
  <rect x="114" y="156" width="6" height="6" fill="#000000"/>
  <rect x="156" y="156" width="6" height="6" fill="#000000"/>
  <rect x="168" y="156" width="6" height="6" fill="#000000"/>
  <rect x="174" y="156" width="6" height="6" fill="#000000"/>
  <rect x="198" y="156" width="6" height="6" fill="#000000"/>
  <rect x="204" y="156" width="6" height="6" fill="#000000"/>
  <rect x="210" y="156" width="6" height="6" fill="#000000"/>
  <rect x="228" y="156" width="6" height="6" fill="#000000"/>
  <rect x="258" y="156" width="6" height="6" fill="#000000"/>
  <rect x="264" y="156" width="6" height="6" fill="#000000"/>
  <rect x="48" y="162" width="6" height="6" fill="#000000"/>
  <rect x="54" y="162" width="6" height="6" fill="#000000"/>
  <rect x="72" y="162" width="6" height="6" fill="#000000"/>
  <rect x="96" y="162" width="6" height="6" fill="#000000"/>
  <rect x="102" y="162" width="6" height="6" fill="#000000"/>
  <rect x="114" y="162" width="6" height="6" fill="#000000"/>
  <rect x="120" y="162" width="6" height="6" fill="#000000"/>
  <rect x="126" y="162" width="6" height="6" fill="#000000"/>
  <rect x="132" y="162" width="6" height="6" fill="#000000"/>
  <rect x="144" y="162" width="6" height="6" fill="#000000"/>
  <rect x="174" y="162" width="6" height="6" fill="#000000"/>
  <rect x="186" y="162" width="6" height="6" fill="#000000"/>
  <rect x="192" y="162" width="6" height="6" fill="#000000"/>
  <rect x="204" y="162" width="6" height="6" fill="#000000"/>
  <rect x="210" y="162" width="6" height="6" fill="#000000"/>
  <rect x="216" y="162" width="6" height="6" fill="#000000"/>
  <rect x="222" y="162" width="6" height="6" fill="#000000"/>
  <rect x="234" y="162" width="6" height="6" fill="#000000"/>
  <rect x="264" y="162" width="6" height="6" fill="#000000"/>
  <rect x="48" y="168" width="6" height="6" fill="#000000"/>
  <rect x="54" y="168" width="6" height="6" fill="#000000"/>
  <rect x="60" y="168" width="6" height="6" fill="#000000"/>
  <rect x="66" y="168" width="6" height="6" fill="#000000"/>
  <rect x="84" y="168" width="6" height="6" fill="#000000"/>
  <rect x="96" y="168" width="6" height="6" fill="#000000"/>
  <rect x="102" y="168" width="6" height="6" fill="#000000"/>
  <rect x="114" y="168" width="6" height="6" fill="#000000"/>
  <rect x="120" y="168" width="6" height="6" fill="#000000"/>
  <rect x="126" y="168" width="6" height="6" fill="#000000"/>
  <rect x="150" y="168" width="6" height="6" fill="#000000"/>
  <rect x="156" y="168" width="6" height="6" fill="#000000"/>
  <rect x="168" y="168" width="6" height="6" fill="#000000"/>
  <rect x="198" y="168" width="6" height="6" fill="#000000"/>
  <rect x="204" y="168" width="6" height="6" fill="#000000"/>
  <rect x="210" y="168" width="6" height="6" fill="#000000"/>
  <rect x="228" y="168" width="6" height="6" fill="#000000"/>
  <rect x="240" y="168" width="6" height="6" fill="#000000"/>
  <rect x="246" y="168" width="6" height="6" fill="#000000"/>
  <rect x="252" y="168" width="6" height="6" fill="#000000"/>
  <rect x="54" y="174" width="6" height="6" fill="#000000"/>
  <rect x="60" y="174" width="6" height="6" fill="#000000"/>
  <rect x="66" y="174" width="6" height="6" fill="#000000"/>
  <rect x="72" y="174" width="6" height="6" fill="#000000"/>
  <rect x="102" y="174" width="6" height="6" fill="#000000"/>
  <rect x="108" y="174" width="6" height="6" fill="#000000"/>
  <rect x="132" y="174" width="6" height="6" fill="#000000"/>
  <rect x="144" y="174" width="6" height="6" fill="#000000"/>
  <rect x="150" y="174" width="6" height="6" fill="#000000"/>
  <rect x="162" y="174" width="6" height="6" fill="#000000"/>
  <rect x="174" y="174" width="6" height="6" fill="#000000"/>
  <rect x="180" y="174" width="6" height="6" fill="#000000"/>
  <rect x="186" y="174" width="6" height="6" fill="#000000"/>
  <rect x="216" y="174" width="6" height="6" fill="#000000"/>
  <rect x="222" y="174" width="6" height="6" fill="#000000"/>
  <rect x="246" y="174" width="6" height="6" fill="#000000"/>
  <rect x="264" y="174" width="6" height="6" fill="#000000"/>
  <rect x="48" y="180" width="6" height="6" fill="#000000"/>
  <rect x="66" y="180" width="6" height="6" fill="#000000"/>
  <rect x="72" y="180" width="6" height="6" fill="#000000"/>
  <rect x="84" y="180" width="6" height="6" fill="#000000"/>
  <rect x="132" y="180" width="6" height="6" fill="#000000"/>
  <rect x="138" y="180" width="6" height="6" fill="#000000"/>
  <rect x="144" y="180" width="6" height="6" fill="#000000"/>
  <rect x="150" y="180" width="6" height="6" fill="#000000"/>
  <rect x="174" y="180" width="6" height="6" fill="#000000"/>
  <rect x="180" y="180" width="6" height="6" fill="#000000"/>
  <rect x="198" y="180" width="6" height="6" fill="#000000"/>
  <rect x="204" y="180" width="6" height="6" fill="#000000"/>
  <rect x="210" y="180" width="6" height="6" fill="#000000"/>
  <rect x="216" y="180" width="6" height="6" fill="#000000"/>
  <rect x="234" y="180" width="6" height="6" fill="#000000"/>
  <rect x="240" y="180" width="6" height="6" fill="#000000"/>
  <rect x="246" y="180" width="6" height="6" fill="#000000"/>
  <rect x="258" y="180" width="6" height="6" fill="#000000"/>
  <rect x="264" y="180" width="6" height="6" fill="#000000"/>
  <rect x="78" y="186" width="6" height="6" fill="#000000"/>
  <rect x="90" y="186" width="6" height="6" fill="#000000"/>
  <rect x="102" y="186" width="6" height="6" fill="#000000"/>
  <rect x="108" y="186" width="6" height="6" fill="#000000"/>
  <rect x="144" y="186" width="6" height="6" fill="#000000"/>
  <rect x="150" y="186" width="6" height="6" fill="#000000"/>
  <rect x="156" y="186" width="6" height="6" fill="#000000"/>
  <rect x="168" y="186" width="6" height="6" fill="#000000"/>
  <rect x="174" y="186" width="6" height="6" fill="#000000"/>
  <rect x="204" y="186" width="6" height="6" fill="#000000"/>
  <rect x="216" y="186" width="6" height="6" fill="#000000"/>
  <rect x="228" y="186" width="6" height="6" fill="#000000"/>
  <rect x="234" y="186" width="6" height="6" fill="#000000"/>
  <rect x="240" y="186" width="6" height="6" fill="#000000"/>
  <rect x="258" y="186" width="6" height="6" fill="#000000"/>
  <rect x="48" y="192" width="6" height="6" fill="#000000"/>
  <rect x="54" y="192" width="6" height="6" fill="#000000"/>
  <rect x="60" y="192" width="6" height="6" fill="#000000"/>
  <rect x="72" y="192" width="6" height="6" fill="#000000"/>
  <rect x="78" y="192" width="6" height="6" fill="#000000"/>
  <rect x="84" y="192" width="6" height="6" fill="#000000"/>
  <rect x="90" y="192" width="6" height="6" fill="#000000"/>
  <rect x="126" y="192" width="6" height="6" fill="#000000"/>
  <rect x="132" y="192" width="6" height="6" fill="#000000"/>
  <rect x="138" y="192" width="6" height="6" fill="#000000"/>
  <rect x="144" y="192" width="6" height="6" fill="#000000"/>
  <rect x="168" y="192" width="6" height="6" fill="#000000"/>
  <rect x="180" y="192" width="6" height="6" fill="#000000"/>
  <rect x="204" y="192" width="6" height="6" fill="#000000"/>
  <rect x="210" y="192" width="6" height="6" fill="#000000"/>
  <rect x="216" y="192" width="6" height="6" fill="#000000"/>
  <rect x="222" y="192" width="6" height="6" fill="#000000"/>
  <rect x="228" y="192" width="6" height="6" fill="#000000"/>
  <rect x="252" y="192" width="6" height="6" fill="#000000"/>
  <rect x="264" y="192" width="6" height="6" fill="#000000"/>
  <rect x="48" y="198" width="6" height="6" fill="#000000"/>
  <rect x="54" y="198" width="6" height="6" fill="#000000"/>
  <rect x="60" y="198" width="6" height="6" fill="#000000"/>
  <rect x="114" y="198" width="6" height="6" fill="#000000"/>
  <rect x="120" y="198" width="6" height="6" fill="#000000"/>
  <rect x="126" y="198" width="6" height="6" fill="#000000"/>
  <rect x="138" y="198" width="6" height="6" fill="#000000"/>
  <rect x="156" y="198" width="6" height="6" fill="#000000"/>
  <rect x="162" y="198" width="6" height="6" fill="#000000"/>
  <rect x="174" y="198" width="6" height="6" fill="#000000"/>
  <rect x="186" y="198" width="6" height="6" fill="#000000"/>
  <rect x="192" y="198" width="6" height="6" fill="#000000"/>
  <rect x="198" y="198" width="6" height="6" fill="#000000"/>
  <rect x="234" y="198" width="6" height="6" fill="#000000"/>
  <rect x="246" y="198" width="6" height="6" fill="#000000"/>
  <rect x="48" y="204" width="6" height="6" fill="#000000"/>
  <rect x="60" y="204" width="6" height="6" fill="#000000"/>
  <rect x="78" y="204" width="6" height="6" fill="#000000"/>
  <rect x="84" y="204" width="6" height="6" fill="#000000"/>
  <rect x="90" y="204" width="6" height="6" fill="#000000"/>
  <rect x="108" y="204" width="6" height="6" fill="#000000"/>
  <rect x="114" y="204" width="6" height="6" fill="#000000"/>
  <rect x="126" y="204" width="6" height="6" fill="#000000"/>
  <rect x="132" y="204" width="6" height="6" fill="#000000"/>
  <rect x="138" y="204" width="6" height="6" fill="#000000"/>
  <rect x="144" y="204" width="6" height="6" fill="#000000"/>
  <rect x="150" y="204" width="6" height="6" fill="#000000"/>
  <rect x="156" y="204" width="6" height="6" fill="#000000"/>
  <rect x="192" y="204" width="6" height="6" fill="#000000"/>
  <rect x="198" y="204" width="6" height="6" fill="#000000"/>
  <rect x="204" y="204" width="6" height="6" fill="#000000"/>
  <rect x="210" y="204" width="6" height="6" fill="#000000"/>
  <rect x="228" y="204" width="6" height="6" fill="#000000"/>
  <rect x="240" y="204" width="6" height="6" fill="#000000"/>
  <rect x="258" y="204" width="6" height="6" fill="#000000"/>
  <rect x="264" y="204" width="6" height="6" fill="#000000"/>
  <rect x="48" y="210" width="6" height="6" fill="#000000"/>
  <rect x="96" y="210" width="6" height="6" fill="#000000"/>
  <rect x="114" y="210" width="6" height="6" fill="#000000"/>
  <rect x="138" y="210" width="6" height="6" fill="#000000"/>
  <rect x="162" y="210" width="6" height="6" fill="#000000"/>
  <rect x="168" y="210" width="6" height="6" fill="#000000"/>
  <rect x="174" y="210" width="6" height="6" fill="#000000"/>
  <rect x="180" y="210" width="6" height="6" fill="#000000"/>
  <rect x="204" y="210" width="6" height="6" fill="#000000"/>
  <rect x="210" y="210" width="6" height="6" fill="#000000"/>
  <rect x="228" y="210" width="6" height="6" fill="#000000"/>
  <rect x="48" y="216" width="6" height="6" fill="#000000"/>
  <rect x="60" y="216" width="6" height="6" fill="#000000"/>
  <rect x="66" y="216" width="6" height="6" fill="#000000"/>
  <rect x="78" y="216" width="6" height="6" fill="#000000"/>
  <rect x="84" y="216" width="6" height="6" fill="#000000"/>
  <rect x="90" y="216" width="6" height="6" fill="#000000"/>
  <rect x="96" y="216" width="6" height="6" fill="#000000"/>
  <rect x="102" y="216" width="6" height="6" fill="#000000"/>
  <rect x="114" y="216" width="6" height="6" fill="#000000"/>
  <rect x="138" y="216" width="6" height="6" fill="#000000"/>
  <rect x="144" y="216" width="6" height="6" fill="#000000"/>
  <rect x="150" y="216" width="6" height="6" fill="#000000"/>
  <rect x="156" y="216" width="6" height="6" fill="#000000"/>
  <rect x="162" y="216" width="6" height="6" fill="#000000"/>
  <rect x="168" y="216" width="6" height="6" fill="#000000"/>
  <rect x="198" y="216" width="6" height="6" fill="#000000"/>
  <rect x="204" y="216" width="6" height="6" fill="#000000"/>
  <rect x="216" y="216" width="6" height="6" fill="#000000"/>
  <rect x="222" y="216" width="6" height="6" fill="#000000"/>
  <rect x="228" y="216" width="6" height="6" fill="#000000"/>
  <rect x="234" y="216" width="6" height="6" fill="#000000"/>
  <rect x="240" y="216" width="6" height="6" fill="#000000"/>
  <rect x="96" y="222" width="6" height="6" fill="#000000"/>
  <rect x="102" y="222" width="6" height="6" fill="#000000"/>
  <rect x="108" y="222" width="6" height="6" fill="#000000"/>
  <rect x="120" y="222" width="6" height="6" fill="#000000"/>
  <rect x="144" y="222" width="6" height="6" fill="#000000"/>
  <rect x="162" y="222" width="6" height="6" fill="#000000"/>
  <rect x="180" y="222" width="6" height="6" fill="#000000"/>
  <rect x="186" y="222" width="6" height="6" fill="#000000"/>
  <rect x="198" y="222" width="6" height="6" fill="#000000"/>
  <rect x="216" y="222" width="6" height="6" fill="#000000"/>
  <rect x="240" y="222" width="6" height="6" fill="#000000"/>
  <rect x="246" y="222" width="6" height="6" fill="#000000"/>
  <rect x="258" y="222" width="6" height="6" fill="#000000"/>
  <rect x="48" y="228" width="6" height="6" fill="#000000"/>
  <rect x="54" y="228" width="6" height="6" fill="#000000"/>
  <rect x="60" y="228" width="6" height="6" fill="#000000"/>
  <rect x="66" y="228" width="6" height="6" fill="#000000"/>
  <rect x="72" y="228" width="6" height="6" fill="#000000"/>
  <rect x="78" y="228" width="6" height="6" fill="#000000"/>
  <rect x="84" y="228" width="6" height="6" fill="#000000"/>
  <rect x="108" y="228" width="6" height="6" fill="#000000"/>
  <rect x="126" y="228" width="6" height="6" fill="#000000"/>
  <rect x="138" y="228" width="6" height="6" fill="#000000"/>
  <rect x="156" y="228" width="6" height="6" fill="#000000"/>
  <rect x="168" y="228" width="6" height="6" fill="#000000"/>
  <rect x="174" y="228" width="6" height="6" fill="#000000"/>
  <rect x="180" y="228" width="6" height="6" fill="#000000"/>
  <rect x="192" y="228" width="6" height="6" fill="#000000"/>
  <rect x="204" y="228" width="6" height="6" fill="#000000"/>
  <rect x="216" y="228" width="6" height="6" fill="#000000"/>
  <rect x="228" y="228" width="6" height="6" fill="#000000"/>
  <rect x="240" y="228" width="6" height="6" fill="#000000"/>
  <rect x="252" y="228" width="6" height="6" fill="#000000"/>
  <rect x="264" y="228" width="6" height="6" fill="#000000"/>
  <rect x="48" y="234" width="6" height="6" fill="#000000"/>
  <rect x="84" y="234" width="6" height="6" fill="#000000"/>
  <rect x="96" y="234" width="6" height="6" fill="#000000"/>
  <rect x="108" y="234" width="6" height="6" fill="#000000"/>
  <rect x="114" y="234" width="6" height="6" fill="#000000"/>
  <rect x="126" y="234" width="6" height="6" fill="#000000"/>
  <rect x="132" y="234" width="6" height="6" fill="#000000"/>
  <rect x="138" y="234" width="6" height="6" fill="#000000"/>
  <rect x="174" y="234" width="6" height="6" fill="#000000"/>
  <rect x="186" y="234" width="6" height="6" fill="#000000"/>
  <rect x="216" y="234" width="6" height="6" fill="#000000"/>
  <rect x="240" y="234" width="6" height="6" fill="#000000"/>
  <rect x="246" y="234" width="6" height="6" fill="#000000"/>
  <rect x="258" y="234" width="6" height="6" fill="#000000"/>
  <rect x="264" y="234" width="6" height="6" fill="#000000"/>
  <rect x="48" y="240" width="6" height="6" fill="#000000"/>
  <rect x="60" y="240" width="6" height="6" fill="#000000"/>
  <rect x="66" y="240" width="6" height="6" fill="#000000"/>
  <rect x="72" y="240" width="6" height="6" fill="#000000"/>
  <rect x="84" y="240" width="6" height="6" fill="#000000"/>
  <rect x="96" y="240" width="6" height="6" fill="#000000"/>
  <rect x="102" y="240" width="6" height="6" fill="#000000"/>
  <rect x="108" y="240" width="6" height="6" fill="#000000"/>
  <rect x="120" y="240" width="6" height="6" fill="#000000"/>
  <rect x="138" y="240" width="6" height="6" fill="#000000"/>
  <rect x="156" y="240" width="6" height="6" fill="#000000"/>
  <rect x="162" y="240" width="6" height="6" fill="#000000"/>
  <rect x="180" y="240" width="6" height="6" fill="#000000"/>
  <rect x="186" y="240" width="6" height="6" fill="#000000"/>
  <rect x="198" y="240" width="6" height="6" fill="#000000"/>
  <rect x="210" y="240" width="6" height="6" fill="#000000"/>
  <rect x="216" y="240" width="6" height="6" fill="#000000"/>
  <rect x="222" y="240" width="6" height="6" fill="#000000"/>
  <rect x="228" y="240" width="6" height="6" fill="#000000"/>
  <rect x="234" y="240" width="6" height="6" fill="#000000"/>
  <rect x="240" y="240" width="6" height="6" fill="#000000"/>
  <rect x="252" y="240" width="6" height="6" fill="#000000"/>
  <rect x="258" y="240" width="6" height="6" fill="#000000"/>
  <rect x="48" y="246" width="6" height="6" fill="#000000"/>
  <rect x="60" y="246" width="6" height="6" fill="#000000"/>
  <rect x="66" y="246" width="6" height="6" fill="#000000"/>
  <rect x="72" y="246" width="6" height="6" fill="#000000"/>
  <rect x="84" y="246" width="6" height="6" fill="#000000"/>
  <rect x="96" y="246" width="6" height="6" fill="#000000"/>
  <rect x="114" y="246" width="6" height="6" fill="#000000"/>
  <rect x="120" y="246" width="6" height="6" fill="#000000"/>
  <rect x="138" y="246" width="6" height="6" fill="#000000"/>
  <rect x="144" y="246" width="6" height="6" fill="#000000"/>
  <rect x="150" y="246" width="6" height="6" fill="#000000"/>
  <rect x="162" y="246" width="6" height="6" fill="#000000"/>
  <rect x="174" y="246" width="6" height="6" fill="#000000"/>
  <rect x="180" y="246" width="6" height="6" fill="#000000"/>
  <rect x="186" y="246" width="6" height="6" fill="#000000"/>
  <rect x="198" y="246" width="6" height="6" fill="#000000"/>
  <rect x="204" y="246" width="6" height="6" fill="#000000"/>
  <rect x="210" y="246" width="6" height="6" fill="#000000"/>
  <rect x="216" y="246" width="6" height="6" fill="#000000"/>
  <rect x="228" y="246" width="6" height="6" fill="#000000"/>
  <rect x="240" y="246" width="6" height="6" fill="#000000"/>
  <rect x="246" y="246" width="6" height="6" fill="#000000"/>
  <rect x="264" y="246" width="6" height="6" fill="#000000"/>
  <rect x="48" y="252" width="6" height="6" fill="#000000"/>
  <rect x="60" y="252" width="6" height="6" fill="#000000"/>
  <rect x="66" y="252" width="6" height="6" fill="#000000"/>
  <rect x="72" y="252" width="6" height="6" fill="#000000"/>
  <rect x="84" y="252" width="6" height="6" fill="#000000"/>
  <rect x="96" y="252" width="6" height="6" fill="#000000"/>
  <rect x="114" y="252" width="6" height="6" fill="#000000"/>
  <rect x="120" y="252" width="6" height="6" fill="#000000"/>
  <rect x="126" y="252" width="6" height="6" fill="#000000"/>
  <rect x="132" y="252" width="6" height="6" fill="#000000"/>
  <rect x="150" y="252" width="6" height="6" fill="#000000"/>
  <rect x="168" y="252" width="6" height="6" fill="#000000"/>
  <rect x="174" y="252" width="6" height="6" fill="#000000"/>
  <rect x="180" y="252" width="6" height="6" fill="#000000"/>
  <rect x="204" y="252" width="6" height="6" fill="#000000"/>
  <rect x="210" y="252" width="6" height="6" fill="#000000"/>
  <rect x="222" y="252" width="6" height="6" fill="#000000"/>
  <rect x="258" y="252" width="6" height="6" fill="#000000"/>
  <rect x="264" y="252" width="6" height="6" fill="#000000"/>
  <rect x="48" y="258" width="6" height="6" fill="#000000"/>
  <rect x="84" y="258" width="6" height="6" fill="#000000"/>
  <rect x="102" y="258" width="6" height="6" fill="#000000"/>
  <rect x="108" y="258" width="6" height="6" fill="#000000"/>
  <rect x="120" y="258" width="6" height="6" fill="#000000"/>
  <rect x="126" y="258" width="6" height="6" fill="#000000"/>
  <rect x="144" y="258" width="6" height="6" fill="#000000"/>
  <rect x="162" y="258" width="6" height="6" fill="#000000"/>
  <rect x="168" y="258" width="6" height="6" fill="#000000"/>
  <rect x="174" y="258" width="6" height="6" fill="#000000"/>
  <rect x="180" y="258" width="6" height="6" fill="#000000"/>
  <rect x="192" y="258" width="6" height="6" fill="#000000"/>
  <rect x="204" y="258" width="6" height="6" fill="#000000"/>
  <rect x="210" y="258" width="6" height="6" fill="#000000"/>
  <rect x="216" y="258" width="6" height="6" fill="#000000"/>
  <rect x="222" y="258" width="6" height="6" fill="#000000"/>
  <rect x="240" y="258" width="6" height="6" fill="#000000"/>
  <rect x="264" y="258" width="6" height="6" fill="#000000"/>
  <rect x="48" y="264" width="6" height="6" fill="#000000"/>
  <rect x="54" y="264" width="6" height="6" fill="#000000"/>
  <rect x="60" y="264" width="6" height="6" fill="#000000"/>
  <rect x="66" y="264" width="6" height="6" fill="#000000"/>
  <rect x="72" y="264" width="6" height="6" fill="#000000"/>
  <rect x="78" y="264" width="6" height="6" fill="#000000"/>
  <rect x="84" y="264" width="6" height="6" fill="#000000"/>
  <rect x="96" y="264" width="6" height="6" fill="#000000"/>
  <rect x="102" y="264" width="6" height="6" fill="#000000"/>
  <rect x="108" y="264" width="6" height="6" fill="#000000"/>
  <rect x="114" y="264" width="6" height="6" fill="#000000"/>
  <rect x="120" y="264" width="6" height="6" fill="#000000"/>
  <rect x="126" y="264" width="6" height="6" fill="#000000"/>
  <rect x="144" y="264" width="6" height="6" fill="#000000"/>
  <rect x="150" y="264" width="6" height="6" fill="#000000"/>
  <rect x="168" y="264" width="6" height="6" fill="#000000"/>
  <rect x="186" y="264" width="6" height="6" fill="#000000"/>
  <rect x="192" y="264" width="6" height="6" fill="#000000"/>
  <rect x="198" y="264" width="6" height="6" fill="#000000"/>
  <rect x="240" y="264" width="6" height="6" fill="#000000"/>
  <rect x="258" y="264" width="6" height="6" fill="#000000"/>
  <rect x="264" y="264" width="6" height="6" fill="#000000"/>
</svg>
